<svg width="256" height="256" viewBox="0 0 256 256" fill="none" xmlns="http://www.w3.org/2000/svg">
  <path d="M237.065 0H18.9349C8.47743 0 0 8.47743 0 18.9349V237.065C0 247.523 8.47743 256 18.9349 256H237.065C247.523 256 256 247.523 256 237.065V18.9349C256 8.47743 247.523 0 237.065 0Z" fill="#F5F5F5"/>
  <path d="M48.3458 156.698V151.416H48.201C47.6701 153.249 46.7529 154.792 45.4496 156.047C44.1946 157.301 42.3603 157.928 39.9468 157.928C38.0643 157.928 36.3749 157.421 34.8785 156.408C33.3821 155.395 32.1271 153.997 31.1134 152.212C30.0997 150.379 29.3274 148.257 28.7965 145.845C28.2655 143.385 28 140.732 28 137.886C28 135.089 28.2414 132.508 28.7241 130.145C29.255 127.781 30.0273 125.755 31.041 124.067C32.0547 122.331 33.2856 120.98 34.7337 120.016C36.23 119.051 37.9678 118.568 39.9468 118.568C41.9742 118.568 43.6878 119.147 45.0876 120.305C46.4874 121.414 47.4528 122.813 47.9838 124.501H48.201V102H56.238V156.698H48.3458ZM48.4907 138.248C48.4907 136.463 48.3458 134.823 48.0562 133.328C47.8149 131.785 47.4287 130.458 46.8977 129.349C46.415 128.191 45.7634 127.299 44.9428 126.672C44.1705 125.997 43.2775 125.659 42.2638 125.659C41.2019 125.659 40.2847 125.997 39.5124 126.672C38.7401 127.299 38.1126 128.191 37.6299 129.349C37.1472 130.458 36.7852 131.785 36.5438 133.328C36.3025 134.823 36.1818 136.463 36.1818 138.248C36.1818 139.984 36.3025 141.624 36.5438 143.168C36.7852 144.663 37.1472 145.99 37.6299 147.147C38.1126 148.257 38.7401 149.149 39.5124 149.824C40.2847 150.451 41.2019 150.765 42.2638 150.765C43.3258 150.765 44.2429 150.451 45.0152 149.824C45.7875 149.149 46.415 148.257 46.8977 147.147C47.4287 145.99 47.8149 144.663 48.0562 143.168C48.3458 141.624 48.4907 139.984 48.4907 138.248Z" fill="#252B34"/>
  <path d="M66.1643 140.346C66.1643 141.793 66.3091 143.168 66.5987 144.47C66.8883 145.724 67.2986 146.834 67.8296 147.798C68.4088 148.715 69.0846 149.463 69.8569 150.041C70.6775 150.572 71.6188 150.837 72.6807 150.837C74.1771 150.837 75.3597 150.355 76.2286 149.39C77.1457 148.425 77.8698 147.316 78.4008 146.062L84.4104 149.535C83.3484 152.091 81.8279 154.141 79.8489 155.685C77.9181 157.18 75.4321 157.928 72.3911 157.928C68.0951 157.928 64.6438 156.239 62.0372 152.863C59.4306 149.487 58.1273 144.639 58.1273 138.32C58.1273 135.378 58.4652 132.701 59.141 130.289C59.8168 127.829 60.7822 125.731 62.0372 123.995C63.2922 122.258 64.7645 120.932 66.4539 120.016C68.1916 119.051 70.1224 118.568 72.2463 118.568C74.6116 118.568 76.6148 119.051 78.2559 120.016C79.9454 120.98 81.297 122.307 82.3106 123.995C83.3726 125.635 84.1449 127.588 84.6276 129.855C85.1103 132.122 85.3516 134.582 85.3516 137.235V140.346H66.1643ZM77.5319 134.413C77.5319 131.664 77.0975 129.445 76.2286 127.757C75.3597 126.021 74.0082 125.152 72.1739 125.152C71.112 125.152 70.1948 125.466 69.4225 126.093C68.6985 126.72 68.0951 127.516 67.6124 128.481C67.178 129.397 66.8401 130.41 66.5987 131.519C66.3574 132.581 66.2367 133.545 66.2367 134.413H77.5319Z" fill="#252B34"/>
  <path d="M119.906 151.199C118.555 153.225 116.817 154.865 114.693 156.119C112.618 157.373 109.987 158 106.801 158C103.905 158 101.274 157.325 98.9089 155.974C96.592 154.624 94.6129 152.767 92.9717 150.403C91.3788 147.991 90.1238 145.146 89.2067 141.866C88.3378 138.586 87.9034 134.992 87.9034 131.085C87.9034 127.178 88.3378 123.585 89.2067 120.305C90.1238 116.977 91.4029 114.131 93.0441 111.767C94.6853 109.356 96.6644 107.499 98.9813 106.196C101.347 104.846 103.953 104.171 106.801 104.171C109.746 104.171 112.328 104.725 114.548 105.835C116.769 106.896 118.579 108.439 119.979 110.465L114.983 116.543C113.004 113.697 110.445 112.274 107.308 112.274C105.57 112.274 104.05 112.78 102.746 113.793C101.443 114.758 100.357 116.084 99.4882 117.773C98.6193 119.461 97.9677 121.463 97.5332 123.778C97.0988 126.045 96.8816 128.481 96.8816 131.085C96.8816 133.642 97.0988 136.078 97.5332 138.393C97.9677 140.66 98.6193 142.637 99.4882 144.326C100.357 146.014 101.443 147.364 102.746 148.377C104.098 149.342 105.667 149.824 107.453 149.824C109.142 149.824 110.59 149.39 111.797 148.522C113.052 147.654 114.09 146.593 114.91 145.339L119.906 151.199Z" fill="#252B34"/>
  <path d="M145.834 156.698L137.87 134.848H133.019V156.698H124.62V105.473H139.245C141.369 105.473 143.324 105.762 145.11 106.341C146.896 106.872 148.417 107.74 149.672 108.946C150.975 110.152 151.989 111.671 152.713 113.504C153.437 115.337 153.799 117.531 153.799 120.088C153.799 122.065 153.533 123.826 153.002 125.37C152.52 126.865 151.892 128.143 151.12 129.204C150.348 130.265 149.479 131.134 148.513 131.809C147.596 132.436 146.679 132.87 145.762 133.111L154.957 156.698H145.834ZM145.255 120.522C145.255 118.978 145.038 117.7 144.603 116.687C144.169 115.674 143.59 114.879 142.866 114.3C142.19 113.721 141.418 113.311 140.549 113.07C139.68 112.829 138.811 112.708 137.942 112.708H133.019V128.481H137.942C140.066 128.481 141.804 127.829 143.155 126.527C144.555 125.177 145.255 123.175 145.255 120.522Z" fill="#252B34"/>
  <path d="M193.238 131.158C193.238 139.261 191.524 145.556 188.097 150.041C184.718 154.479 179.722 156.698 173.109 156.698H160.293V105.473H173.181C179.746 105.473 184.718 107.74 188.097 112.274C191.524 116.76 193.238 123.054 193.238 131.158ZM184.549 131.158C184.549 128.119 184.259 125.466 183.68 123.199C183.149 120.932 182.377 119.051 181.363 117.556C180.349 116.06 179.143 114.951 177.743 114.227C176.343 113.456 174.823 113.07 173.181 113.07H169.054V149.101H173.181C174.823 149.101 176.343 148.739 177.743 148.016C179.143 147.244 180.349 146.11 181.363 144.615C182.377 143.12 183.149 141.263 183.68 139.044C184.259 136.777 184.549 134.148 184.549 131.158Z" fill="#252B34"/>
  <path d="M219.66 156.698L211.116 137.09L202.5 156.698H193.449L206.265 129.711L194.68 105.473H203.731L211.333 123.127L218.863 105.473H227.769L216.112 129.711L229 156.698H219.66Z" fill="#252B34"/>
</svg>
