<svg xmlns="http://www.w3.org/2000/svg" width="256" height="256" viewBox="0 0 44 44" fill="none">
  <rect width="44" height="44" rx="22" fill="#012501" />
  <g clip-path="url(#clip0_4942_13143)">
    <path d="M7.66691 21.9991C7.66691 14.662 13.1612 8.59085 20.2365 7.71512V4.41553C11.3581 5.30766 4.40039 12.8515 4.40039 21.9991C4.40039 31.1468 11.3581 38.6906 20.2365 39.5827V36.2831C13.1612 35.4074 7.66691 29.333 7.66691 21.9991Z" fill="white" />
    <path d="M23.5742 4.39893V7.69524C30.741 8.48241 36.3332 14.5962 36.3332 21.9989C36.3332 29.4017 30.741 35.5154 23.5742 36.3026V39.5989C32.5441 38.7986 39.5998 31.2122 39.5998 21.9989C39.5998 12.7857 32.5441 5.19922 23.5742 4.39893Z" fill="white" />
    <path d="M15.4504 18.847L17.8186 15.8623H15.7934C13.8564 15.8623 12.2852 17.4399 12.2852 19.3849H14.3365C14.5489 19.3849 14.7612 19.3357 14.9506 19.2406C15.1434 19.1488 15.3132 19.0143 15.4471 18.847H15.4504Z" fill="white" />
    <path d="M14.9575 24.1311C14.7647 24.036 14.5557 23.9868 14.3434 23.9868H12.292V27.5094H17.8222L15.454 24.5247C15.3201 24.3574 15.1502 24.223 14.9575 24.1311Z" fill="white" />
    <path d="M28.5489 24.5213L26.1807 27.506H28.2059C30.1429 27.506 31.7141 25.9284 31.7141 23.9834H29.6628C29.4504 23.9834 29.2381 24.0326 29.0487 24.1277C28.8559 24.2196 28.6861 24.354 28.5522 24.5213H28.5489Z" fill="white" />
    <path d="M29.0434 19.2372C29.2362 19.3323 29.4452 19.3815 29.6576 19.3815H31.7089V15.8589H26.1787L28.5469 18.8436C28.6809 19.0109 28.8507 19.1454 29.0434 19.2372Z" fill="white" />
    <path d="M17.9717 15.866H26.0334L23.6293 12.8387V8.9126H20.2909V12.8911C20.2909 12.8911 20.3203 12.8911 20.3334 12.8911L17.9717 15.866Z" fill="white" />
    <path d="M23.6273 30.5433L26.0315 27.5127H17.9697L20.2857 30.4318V35.0106C20.8377 35.063 21.3963 35.0893 21.9549 35.0893C22.5135 35.0893 23.072 35.063 23.6241 35.0106V30.5466L23.6273 30.5433Z" fill="white" />
    <path d="M14.7128 22.4973C15.2518 23.0483 15.9868 23.3599 16.7577 23.3599H31.7118L29.288 20.8704C28.749 20.3194 28.0141 20.0078 27.2432 20.0078H12.2891L14.7128 22.4973Z" fill="white" />
  </g>
  <defs>
    <clipPath id="clip0_4942_13143">
      <rect width="35.2" height="35.2" fill="white" transform="translate(4.40039 4.3999)" />
    </clipPath>
  </defs>
</svg>
