<svg width="256" height="256" viewBox="0 0 256 256" fill="none" xmlns="http://www.w3.org/2000/svg">
  <path d="M127.999 255.999C198.933 255.999 255.999 198.933 255.999 127.999C255.999 57.066 198.933 0 127.999 0C57.066 0 0 57.066 0 127.999C0 198.933 57.066 255.999 127.999 255.999Z" fill="#FC7A4A"/>
  <path d="M163.199 148.266C163.199 129.599 151.999 123.199 129.599 120.533C113.6 118.399 110.4 114.133 110.4 106.666C110.4 99.1983 115.733 94.3996 126.399 94.3996C135.999 94.3996 141.333 97.5996 143.999 105.599C144.533 107.2 146.133 108.266 147.733 108.266H156.266C158.399 108.266 159.999 106.666 159.999 104.533V103.999C157.866 92.2658 148.266 83.1996 135.999 82.1333V69.3334C135.999 67.1997 134.399 65.5997 131.733 65.0659H123.733C121.599 65.0659 119.999 66.6659 119.466 69.3334V81.5996C103.466 83.7333 93.3334 94.3996 93.3334 107.733C93.3334 125.333 104 132.266 126.399 134.933C141.333 137.599 146.133 140.799 146.133 149.333C146.133 157.867 138.666 163.733 128.533 163.733C114.666 163.733 109.866 157.866 108.266 149.866C107.733 147.733 106.133 146.666 104.533 146.666H95.4659C93.3334 146.666 91.7334 148.266 91.7334 150.399V150.933C93.8659 164.266 102.4 173.866 119.999 176.533V189.333C119.999 191.466 121.599 193.066 124.266 193.599H132.266C134.399 193.599 135.999 191.999 136.533 189.333V176.533C152.533 173.866 163.199 162.666 163.199 148.266Z" fill="white"/>
  <path d="M100.8 204.266C59.1998 189.333 37.8661 142.933 53.3336 101.866C61.3335 79.4659 78.9334 62.3996 100.8 54.3997C102.933 53.3335 104 51.7335 104 49.066V41.5997C104 39.466 102.933 37.866 100.8 37.3335C100.266 37.3335 99.1997 37.3335 98.6659 37.866C47.9999 53.866 20.2662 107.733 36.2661 158.399C45.8661 188.266 68.7998 211.199 98.6659 220.799C100.8 221.866 102.933 220.799 103.466 218.666C104 218.132 104 217.599 104 216.532V209.066C104 207.466 102.4 205.333 100.8 204.266ZM157.333 37.866C155.199 36.7997 153.066 37.866 152.533 39.9997C151.999 40.5335 151.999 41.066 151.999 42.1335V49.5997C151.999 51.7335 153.599 53.866 155.199 54.9335C196.799 69.8659 218.132 116.266 202.666 157.333C194.666 179.733 177.066 196.799 155.199 204.799C153.066 205.866 151.999 207.466 151.999 210.132V217.599C151.999 219.732 153.066 221.332 155.199 221.866C155.733 221.866 156.799 221.866 157.333 221.332C207.999 205.333 235.732 151.466 219.732 100.8C210.132 70.3996 186.666 47.466 157.333 37.866Z" fill="white"/>
</svg>
