<svg xmlns="http://www.w3.org/2000/svg" width="256" height="256" viewBox="0 0 64 64" fill="none">
<defs>
  <clipPath id="hyausd-clip">
    <circle cx="32" cy="32" r="27.5"/>
  </clipPath>
</defs>
<g>
  <circle cx="32" cy="32" r="32" fill="#644AEE"/>
  <circle cx="32" cy="32" r="29.75" fill="#FBBF24"/>
  <circle cx="32" cy="32" r="27.5" fill="#9A9350"/>
  <g clip-path="url(#hyausd-clip)">
    <circle cx="32" cy="32" r="27.5" fill="#9A9350"/>
    <g transform="matrix(0.0625 0 0 0.0625 -1.75 -3.625)">
      <path d="M527.038 264V478.893C527.038 487.749 516.356 492.245 510.035 486.025L409.299 387.047L451.52 276.812C454.461 269.104 461.864 264 470.146 264H527.004H527.038Z" fill="white"/>
      <path d="M527.037 556.607V677.322C527.037 685.299 517.47 689.423 511.69 683.947L355.582 536.122L401.387 416.591L515.273 528.482C522.811 535.885 527.07 546.027 527.07 556.573L527.037 556.607Z" fill="white"/>
      <path d="M527.036 751.266V805.387H284.965C270.97 805.387 261.336 791.358 266.339 778.31L347.638 566.256L515.948 725.609C523.013 732.302 527.002 741.564 527.002 751.3L527.036 751.266Z" fill="white"/>
      <path d="M552.866 264V478.893C552.866 487.749 563.549 492.245 569.87 486.025L670.606 387.047L628.385 276.812C625.444 269.104 618.041 264 609.759 264H552.9H552.866Z" fill="white"/>
      <path d="M552.868 556.607V677.322C552.868 685.3 562.435 689.424 568.215 683.947L724.323 536.122L678.518 416.591L564.632 528.482C557.094 535.885 552.834 546.027 552.834 556.574L552.868 556.607Z" fill="white"/>
      <path d="M552.869 751.266V805.387H794.94C808.935 805.387 818.569 791.358 813.566 778.31L732.267 566.257L563.956 725.609C556.891 732.302 552.903 741.565 552.903 751.3L552.869 751.266Z" fill="white"/>
    </g>
  </g>
</g>
</svg>
