<svg xmlns="http://www.w3.org/2000/svg" width="256" height="256" viewBox="0 0 240 240">
  <circle cx="120" cy="120" r="120" fill="#FF5100" />
  <g clip-path="url(#clip0_2_102)">
    <rect width="114.832" height="114.832" transform="translate(63 63)" fill="white" />
    <path d="M135.134 123.277L135.968 123.288C153.209 123.788 152.802 139.895 144.219 153.792L146.698 153.914C139.519 159.493 130.502 162.817 120.707 162.817C98.2513 162.817 79.8758 145.36 78.405 123.277H135.134ZM120.707 78.0179C142.53 78.0181 160.5 94.5059 162.844 115.704H78.5691C80.9134 94.5058 98.8832 78.0179 120.707 78.0179Z" fill="#FF5100" />
    <path d="M152.937 140.595C152.937 150.154 145.188 157.903 135.629 157.903C126.07 157.903 118.321 150.154 118.321 140.595C118.321 131.036 126.07 123.287 135.629 123.287C145.188 123.287 152.937 131.036 152.937 140.595Z" fill="#FF5100" />
    <rect x="39.2095" y="123.322" width="40.8612" height="6.15483" fill="#FF5100" />
    <path d="M161.097 109.646H201.787V115.801H161.097V109.646Z" fill="#FF5100" />
  </g>
  <defs>
    <clipPath id="clip0_2_102">
      <rect width="114.832" height="114.832" fill="white" transform="translate(63 63)" />
    </clipPath>
  </defs>
</svg>
