<svg width="256" height="256" viewBox="0 0 256 256" fill="none" xmlns="http://www.w3.org/2000/svg">
  <mask id="mask0_185_35" style="mask-type:luminance" maskUnits="userSpaceOnUse" x="0" y="0" width="256" height="256">
    <path d="M256 0H0V256H256V0Z" fill="white" />
  </mask>
  <g mask="url(#mask0_185_35)">
    <mask id="mask1_185_35" style="mask-type:luminance" maskUnits="userSpaceOnUse" x="0" y="0" width="256" height="256">
      <path d="M256 0H0V256H256V0Z" fill="white" />
    </mask>
    <g mask="url(#mask1_185_35)">
      <path d="M128 214.4C182.974 214.4 227.2 170.887 227.2 116.8C227.2 62.7129 182.974 19.2 128 19.2C73.0263 19.2 28.8 62.7129 28.8 116.8C28.8 170.887 73.0263 214.4 128 214.4Z" fill="#6E54FF" />
      <path d="M15.4951 28.7999H110.693C117.762 28.7999 123.493 34.5308 123.493 41.5999V58.9497C124.18 53.462 124.284 48.3686 124.28 46.0351C124.278 44.3922 124.222 44.1174 124.28 46.0351C124.334 47.8402 124.49 51.5878 124.885 57.9663C124.991 59.6943 126.43 61.0908 128.161 61.0908C129.174 61.0908 130.082 60.6303 130.681 59.9078C129.461 49.1782 131.226 40.8991 131.428 57.7999C131.438 58.6009 131.156 59.3363 130.681 59.9078C130.864 61.5158 131.114 63.1791 131.447 64.8207V41.5999C131.447 34.5308 137.177 28.7999 144.247 28.7999H240.651C251.737 28.7999 258.665 40.8034 253.119 50.4034L150.834 227.452C141.008 244.461 116.477 244.523 106.566 227.563L3.06253 50.4658C-2.54796 40.8662 4.37591 28.7999 15.4951 28.7999Z" fill="#6E54FF" />
      <path d="M21.7572 41.6H106.064C116.037 41.6 124.122 49.6848 124.122 59.6579V66.4531C124.713 61.9296 124.802 57.7312 124.799 55.8073C124.797 54.4531 124.749 54.2262 124.799 55.8073C124.853 57.5238 125.023 61.3705 125.491 68.2182H130.433C129.071 58.3901 130.966 50.1673 130.966 68.2182V59.6579C130.966 49.6848 139.051 41.6 149.024 41.6H234.212C239.568 41.6 242.872 47.4502 240.106 52.0374L139.582 218.729C134.62 226.957 122.698 226.988 117.694 218.785L15.9316 51.9782C13.1572 47.4307 16.4305 41.6 21.7572 41.6Z" fill="white" />
      <path d="M126.4 48C108.38 48 64 92.3789 64 110.4C64 128.42 108.38 172.8 126.4 172.8C144.419 172.8 188.8 128.42 188.8 110.4C188.8 92.3798 144.42 48 126.4 48ZM116.676 146.082C109.077 144.011 88.6474 108.274 90.7181 100.676C92.7891 93.0765 128.525 72.647 136.124 74.7181C143.723 76.7888 164.153 112.525 162.082 120.124C160.011 127.724 124.275 148.153 116.676 146.082Z" fill="#6E54FF" />
      <path d="M240 134.4H180.8L160 158.4V227.2H217.6L240 204.8V134.4Z" fill="#6E54FF" />
      <path d="M227.2 147.2H186.214L172.8 163.33V189.915H211.551L205.589 196.93H172.8V214.4H213.041L227.2 199.03V170.925H188.449L193.666 165.43H227.2V147.2Z" fill="white" />
    </g>
  </g>
</svg>
