<svg width="256" height="256" viewBox="0 0 256 256" fill="none" xmlns="http://www.w3.org/2000/svg">
  <path d="M127.867 255.734C198.731 255.734 255.734 198.731 255.734 127.867C255.734 57.003 198.731 0 127.867 0C57.003 0 0 57.003 0 127.867C0 198.731 57.003 255.734 127.867 255.734Z" fill="black"/>
  <path d="M255.759 127.884C255.759 198.509 198.509 255.759 127.884 255.759C57.2588 255.759 0 198.509 0 127.884C0 57.2588 57.2502 0 127.884 0C198.509 0 255.759 57.2502 255.759 127.884Z" fill="#3A14A3"/>
  <path d="M127.867 81.3574L167.454 120.936H202.456L127.867 46.356L53.2778 120.945H88.2792L127.867 81.3574ZM167.454 135.624L127.867 175.22L88.2792 135.641H53.2778L127.867 210.213L202.456 135.624H167.454Z" fill="white"/>
</svg>
