<svg width="256" height="256" viewBox="0 0 256 256" fill="none" xmlns="http://www.w3.org/2000/svg">
  <path d="M256 128C256 198.692 198.692 256 128 256C57.3075 256 0 198.692 0 128C0 57.3075 57.3075 0 128 0C198.692 0 256 57.3075 256 128Z" fill="#2C2930" />
  <path d="M251 128C251 60.069 195.931 5 128 5C60.069 5 5 60.069 5 128C5 195.931 60.069 251 128 251V256C57.3075 256 0 198.692 0 128C0 57.3075 57.3075 0 128 0C198.692 0 256 57.3075 256 128C256 198.692 198.692 256 128 256V251C195.931 251 251 195.931 251 128Z" fill="#A66CFF" />
  <path d="M154.675 142.358C154.675 128.212 146.187 123.362 129.212 121.342C117.088 119.725 114.663 116.492 114.663 110.833C114.663 105.174 118.705 101.537 126.787 101.537C134.062 101.537 138.105 103.962 140.125 110.025C140.53 111.238 141.742 112.045 142.955 112.045H149.421C151.037 112.045 152.25 110.833 152.25 109.217V108.812C150.633 99.9205 143.358 93.0499 134.062 92.2419V82.542C134.062 80.925 132.85 79.7125 130.83 79.308H124.767C123.15 79.308 121.937 80.5205 121.533 82.542V91.8374C109.408 93.4544 101.73 101.537 101.73 111.642C101.73 124.98 109.813 130.233 126.787 132.255C138.105 134.275 141.742 136.7 141.742 143.167C141.742 149.634 136.083 154.08 128.405 154.08C117.896 154.08 114.258 149.633 113.045 143.571C112.642 141.955 111.43 141.145 110.217 141.145H103.346C101.73 141.145 100.517 142.358 100.517 143.975V144.38C102.133 154.483 108.6 161.758 121.937 163.78V173.48C121.937 175.096 123.15 176.308 125.171 176.712H131.233C132.85 176.712 134.062 175.5 134.467 173.48V163.78C146.592 161.758 154.675 153.271 154.675 142.358Z" fill="#A66CFF" />
  <path d="M107.388 184.796C75.8625 173.48 59.6956 138.317 71.4171 107.196C77.4795 90.2206 90.817 77.2875 107.388 71.2251C109.005 70.417 109.813 69.2045 109.813 67.183V61.525C109.813 59.908 109.005 58.6955 107.388 58.292C106.983 58.292 106.175 58.292 105.771 58.6955C67.3751 70.8206 46.3581 111.642 58.4831 150.037C65.7581 172.671 83.1376 190.05 105.771 197.325C107.388 198.133 109.005 197.325 109.408 195.708C109.813 195.304 109.813 194.9 109.813 194.092V188.433C109.813 187.221 108.6 185.605 107.388 184.796ZM150.23 58.6955C148.612 57.8875 146.996 58.6955 146.592 60.3125C146.187 60.717 146.187 61.1205 146.187 61.9295V67.5875C146.187 69.2045 147.4 70.8206 148.612 71.6295C180.137 82.9455 196.304 118.108 184.583 149.23C178.521 166.205 165.183 179.137 148.612 185.2C146.996 186.008 146.187 187.221 146.187 189.242V194.9C146.187 196.517 146.996 197.729 148.612 198.133C149.017 198.133 149.825 198.133 150.23 197.729C188.625 185.605 209.642 144.783 197.517 106.388C190.242 83.35 172.458 65.9705 150.23 58.6955Z" fill="#A66CFF" />
</svg>
